<svg width="60" height="60" viewBox="0 0 60 60" fill="none" xmlns="http://www.w3.org/2000/svg">
<rect width="60" height="60" rx="8" fill="#4E4E4E" fill-opacity="0.08"/>
<g clip-path="url(#clip0_208_1354)">
<path d="M41.6667 34.9999V16.6666C41.6655 16.4163 41.608 16.1694 41.4983 15.9443C41.3887 15.7193 41.2298 15.5218 41.0333 15.3666C40.8397 15.21 40.6134 15.0987 40.3712 15.0411C40.1289 14.9834 39.8768 14.9807 39.6333 15.0333L24.6333 18.3666C24.263 18.4501 23.9323 18.6575 23.6959 18.9545C23.4595 19.2515 23.3316 19.6204 23.3333 19.9999V33.8999C22.1955 33.3628 20.9143 33.2091 19.6817 33.4618C18.4492 33.7146 17.3318 34.3601 16.4972 35.3017C15.6627 36.2433 15.1559 37.4301 15.053 38.6841C14.95 39.938 15.2565 41.1916 15.9263 42.2567C16.5962 43.3217 17.5933 44.1409 18.7682 44.5912C19.943 45.0416 21.2322 45.0988 22.4423 44.7544C23.6525 44.41 24.7183 43.6825 25.48 42.681C26.2416 41.6796 26.658 40.4581 26.6667 39.1999C26.6839 38.9113 26.6839 38.6219 26.6667 38.3333V21.3333L38.3333 18.7499V30.5666C37.1949 30.0292 35.9128 29.8755 34.6797 30.1288C33.4465 30.3821 32.3288 31.0287 31.4944 31.9714C30.6601 32.9141 30.154 34.102 30.0524 35.3568C29.9507 36.6116 30.2589 37.8656 30.9306 38.9303C31.6024 39.995 32.6014 40.813 33.7777 41.2615C34.954 41.7101 36.2441 41.7648 37.4542 41.4176C38.6643 41.0704 39.7291 40.34 40.4887 39.3361C41.2482 38.3321 41.6616 37.1088 41.6667 35.8499C41.6825 35.5668 41.6825 35.2831 41.6667 34.9999Z" fill="#040404"/>
</g>
<defs>
<clipPath id="clip0_208_1354">
<rect width="40" height="40" fill="white" transform="translate(10 10)"/>
</clipPath>
</defs>
</svg>
